<?xml version="1.0" encoding="iso-8859-1"?>
<!-- Generator: Adobe Illustrator 21.0.0, SVG Export Plug-In . SVG Version: 6.00 Build 0)  -->
<svg version="1.1" id="Capa_1" xmlns="http://www.w3.org/2000/svg" xmlns:xlink="http://www.w3.org/1999/xlink" x="0px" y="0px"
	 viewBox="0 0 512 512" style="enable-background:new 0 0 512 512;" xml:space="preserve">
<path style="fill:#46738C;" d="M265.205,130.62c-0.117-23.243-19.419-42.152-43.026-42.152h-48.13c-0.122,0-0.239,0.016-0.361,0.018
	c-0.121-0.002-0.239-0.018-0.361-0.018h-48.13c-27.63,0-36.825,23.186-41.764,35.643c-0.103,0.261-0.201,0.525-0.291,0.79
	l-1.775,5.173L60.938,94.457c-4.92-8.578-15.86-11.542-24.436-6.623c-8.577,4.919-11.542,15.859-6.623,24.436l40.075,69.876
	c7.699,13.423,27.505,11.357,32.463-3.098l14.45-42.121c3.985-9.98,5.893-12.063,6.478-12.466c0.005-0.001,0.506-0.189,1.852-0.189
	h0.932v135.756h94.823V124.272h1.228c3.763,0,7.205,3.112,7.222,6.438v131.519c0,9.887,8.015,17.902,17.902,17.902
	c9.887,0,17.902-8.015,17.902-17.902V130.62z"/>
<path style="fill:#C8E6EB;" d="M392.797,106.346c-30,0-58.321-3.05-79.747-8.589c-26.551-6.862-39.456-16.544-39.456-29.596
	s12.906-22.734,39.456-29.596c21.426-5.538,49.748-8.589,79.747-8.589c30,0,58.321,3.05,79.747,8.589
	C499.094,45.427,512,55.109,512,68.161s-12.906,22.734-39.456,29.596C451.117,103.296,422.797,106.346,392.797,106.346z
	 M294.004,68.161c1.874,1.888,8.444,6.841,28.594,11.454c19.274,4.413,44.204,6.843,70.199,6.843c25.995,0,50.925-2.43,70.199-6.843
	c20.149-4.614,26.719-9.567,28.594-11.454c-1.874-1.888-8.444-6.841-28.594-11.454c-19.274-4.413-44.204-6.843-70.199-6.843
	c-25.995,0-50.925,2.43-70.199,6.843C302.449,61.321,295.879,66.273,294.004,68.161z"/>
<g>
	<path style="fill:#46738C;" d="M147.611,453.22c-11.865,0-21.482-9.618-21.482-21.482V260.027c0-11.865,9.618-21.482,21.482-21.482
		s21.482,9.618,21.482,21.482v171.711C169.093,443.603,159.476,453.22,147.611,453.22z"/>
	<path style="fill:#46738C;" d="M199.47,453.22c-11.865,0-21.482-9.618-21.482-21.482V260.027c0-11.865,9.618-21.482,21.482-21.482
		s21.482,9.618,21.482,21.482v171.711C220.952,443.603,211.334,453.22,199.47,453.22z"/>
</g>
<g>
	<rect x="229.401" y="230.943" style="fill:#2A556E;" width="35.804" height="17.512"/>
	<rect x="126.125" y="218.698" style="fill:#2A556E;" width="94.826" height="17.512"/>
	<path style="fill:#2A556E;" d="M219.936,47.421c0-25.851-20.956-46.806-46.806-46.806s-46.806,20.956-46.806,46.806
		c0,12.304,4.755,23.494,12.518,31.848v18.103h68.576V79.269C215.181,70.915,219.936,59.725,219.936,47.421z"/>
</g>
<path style="fill:#D0FBFD;" d="M173.128,23.818c-13.378,0-24.906,5.611-30.192,13.699h-15.555c-0.688,3.193-1.059,6.505-1.059,9.904
	c0,3.428,0.381,6.765,1.082,9.983h15.533c5.286,8.088,16.814,13.699,30.192,13.699c13.378,0,24.906-5.611,30.192-13.699h15.533
	c0.701-3.218,1.082-6.555,1.082-9.983c0-3.399-0.371-6.711-1.059-9.904h-15.555C198.034,29.429,186.507,23.818,173.128,23.818z"/>
<path style="fill:#BA6746;" d="M304.305,509.598c-6.837,0-12.396-5.527-12.428-12.372v-269.6
	c-0.032-6.864,4.271-12.455,11.137-12.486c0.019,0,0.039,0,0.058,0c6.837,0,13.633,5.527,13.664,12.372v269.6
	c0.032,6.864-5.508,12.455-12.372,12.486C304.344,509.598,304.324,509.598,304.305,509.598z"/>
<path style="fill:#A5C8CD;" d="M506.246,511.386c-53.362-69.524-146.788-115.611-253.123-115.611S53.362,441.862,0,511.386H506.246z
	"/>
<polygon style="fill:#2A556E;" points="35.559,122.173 44.272,137.367 75.077,119.111 66.363,103.917 "/>
<circle style="fill:#20968D;" cx="392.792" cy="73.038" r="60.284"/>
<g>
	
		<ellipse transform="matrix(0.8877 -0.4605 0.4605 0.8877 -208.3443 99.0758)" style="fill:#6C9BAA;" cx="98.899" cy="476.573" rx="51.064" ry="27.719"/>
	
		<ellipse transform="matrix(0.999 -0.0451 0.0451 0.999 -19.586 10.9618)" style="fill:#6C9BAA;" cx="233.143" cy="439.546" rx="31.169" ry="16.92"/>
	<path style="fill:#6C9BAA;" d="M399.008,488.245c32.059,16.073,65.942,13.357,75.681-6.066c0.596-1.187,1.083-2.412,1.474-3.664
		c-29.926-27.661-67.143-49.726-109.13-64.091c-3.622,2.52-6.511,5.701-8.439,9.549
		C348.855,443.396,366.949,472.172,399.008,488.245z"/>
</g>
<path style="fill:#FF3C3C;" d="M417.752,268.908c-41.904-13.239-83.556,28.777-125.508,5.272l-0.311-67.813
	c-0.025-5.545,5.348-9.556,10.634-7.886c40.273,12.724,80.314-25.59,120.611-7.725c3.002,1.331,4.905,4.347,4.92,7.63l0.287,62.636
	C428.412,266.566,423.04,270.578,417.752,268.908z"/>
<path style="fill:#C8E6EB;" d="M392.797,106.346c-30,0-58.321-3.05-79.747-8.589c-26.551-6.862-39.456-16.544-39.456-29.596h19.887
	c0-0.415-0.103-0.712-0.143-0.791c0.031,0.063,3.835,6.425,29.26,12.246c19.274,4.413,44.204,6.843,70.199,6.843
	c25.995,0,50.925-2.43,70.199-6.843c25.425-5.821,29.229-12.183,29.26-12.246c-0.039,0.08-0.143,0.377-0.143,0.791H512
	c0,13.053-12.906,22.734-39.456,29.596C451.117,103.296,422.797,106.346,392.797,106.346z"/>
<g>
</g>
<g>
</g>
<g>
</g>
<g>
</g>
<g>
</g>
<g>
</g>
<g>
</g>
<g>
</g>
<g>
</g>
<g>
</g>
<g>
</g>
<g>
</g>
<g>
</g>
<g>
</g>
<g>
</g>
</svg>
